<?xml version="1.0" encoding="utf-8"?>
<!-- Generator: Adobe Illustrator 23.0.5, SVG Export Plug-In . SVG Version: 6.00 Build 0)  -->
<svg version="1.1" id="Capa_1" xmlns="http://www.w3.org/2000/svg" xmlns:xlink="http://www.w3.org/1999/xlink" x="0px" y="0px"
	 viewBox="0 0 482.75 482.7" style="enable-background:new 0 0 482.75 482.7;" xml:space="preserve">
<style type="text/css">
	.st0{fill:#020202;}
	.st1{fill:#1915E8;}
	.st2{fill:#DE1414;}
	.st3{fill:#FFCE00;}
	.st4{fill:#F1F1F1;}
	.st5{fill:#626469;}
	.st6{fill:#FFFFFF;}
	.st7{fill:#A0A0A0;}
	.st8{fill:#FEFEFE;}
	.st9{fill:#DDDDDD;}
</style>
<g>
	<path class="st0" d="M481.56,131.69c1.12,2.15,2.17,7.25-0.45,10.76c-3.98,5.33-10.11,6-15.6,1.14
		c-7.16-6.33-14.8-11.81-23.79-15.23c-16.89-6.42-33.74-6.31-50.68-0.03c-3.41,1.27-1.99,2.99-1.27,4.94
		c6.63,18.01,6.29,35.9-1.53,53.41c-7.04,15.76-18.45,27.52-34.22,34.73c-3.58,1.63-4.34,2.74-2.52,6.73
		c23.03,50.48,32.86,103.44,28.27,158.8c-1.88,22.61-8.11,44.06-20.84,63.27c-20.23,30.53-57.06,41.14-88.24,24.89
		c-18.63-9.7-29.77-26-37.63-44.91c-5.33-12.82-8.24-26.26-10.23-40.47c-4.92,2.79-9.41,5.48-14.04,7.93
		c-27.15,14.34-55.07,26.63-85.95,30.33c-15.08,1.81-29.95,1-43.71-6.45c-2.08-1.13-3.36-0.68-4.74,0.89
		c-0.99,1.12-2.19,2.06-3.15,3.2c-4.03,4.74-8.85,6.6-14.9,4.34c-1.41-1.41-2.83-2.83-4.24-4.24c-1.77-7.41,2.32-12.2,7.32-16.66
		c1.53-1.36,3.39-2.51,1.85-5.37c-9-16.75-8.54-34.62-5.25-52.55c5.7-31.1,18.75-59.37,34.35-86.59c0.8-1.4,1.58-2.83,2.59-4.64
		c-10.52-1.54-20.64-3.37-30.43-6.59c-20.66-6.78-39.07-16.97-51.54-35.53c-18.79-27.97-13.39-66.75,15.73-89.65
		c22.07-17.36,48.01-24.01,75.25-25.72c53.62-3.37,104.91,6.54,153.66,29.21c2.64,1.23,3.69,1.19,5.07-1.77
		c16.06-34.43,52.58-49.7,88.36-36.94c3.56,1.27,4.73,0.66,5.88-2.82c8.89-26.88,3.6-50.73-14.93-71.87
		c-5.77-6.59-5.32-13.79,1.19-17.3c5.71-3.09,12.62,2.79,15.05,5.74c2.17,2.63,4.13,4.86,4.35,5.15
		c20.36,27.54,24.04,57.36,11.45,89.01c-1.84,4.62,0.55,5.97,2.61,8.64c2.29,2.97,4.32,2.22,7.19,1.07
		c28.47-11.4,55.9-8.97,82.26,6.56c1.6,0.94,7.04,4.58,11.46,8.29C478.39,127.79,481.02,130.41,481.56,131.69z M268.28,448.77
		c1.74,1.43,4.25,3.92,7.16,5.82c23.42,15.3,52.09,8.02,67.69-16.8c10.26-16.32,15.29-34.32,16.77-53.2
		c4.05-51.62-5.23-101.02-26.55-148.11c-4.58-10.13-10.36-19.77-18.86-27.34c-9.12-8.12-16.92-8.2-26.09-0.19
		c-9.34,8.16-15.33,18.73-20.53,29.73c-11.74,24.84-18.49,51.21-22.71,78.22c-4.31,27.61-5.63,55.33-0.42,82.98
		C248.12,417.79,254.55,434.38,268.28,448.77z M36.64,217c6.98,6.81,17.44,12.44,28.88,16.36c22.27,7.63,45.31,8.81,68.52,7.46
		c38.16-2.21,75.09-9.96,109.98-25.98c11.36-5.22,22.1-11.56,30.42-21.24c6.44-7.49,7.02-14.08,1.48-22.14
		c-6.94-10.09-17.24-16.1-27.9-21.17c-44.08-20.99-90.74-29.93-139.39-28.16c-22.46,0.82-44.05,5.49-63.71,17.46
		C16.62,156.82,11.76,192.16,36.64,217z M288.53,123.86c-4.32,4.07-8.23,10.13-10.83,17.12c-0.9,2.42-0.53,3.72,1.59,5.37
		c11.09,8.63,19.55,18.98,20.51,33.79c0.12,1.79,0.71,2.68,2.64,2.79c15.05,0.87,25.44,9.51,34.14,20.78
		c1.56,2.02,2.98,2.13,5.09,1.32c6.76-2.6,12.71-6.36,17.89-11.47c19.38-19.12,19.66-51.22,0.52-70.51
		C340.87,103.69,308.91,103.58,288.53,123.86z"/>
	<g>
		<path class="st1" d="M135.24,260.75c-6.7,0.39-13.1,0.54-19.26,0.48c-3.32,4.9-6.53,10.55-7.08,11.49
			c-3.6,6.14-7,12.38-10.24,18.7l92.68,92.68c7.09-3.61,14.05-7.46,20.8-11.72l0.76-0.57c0.91-0.72,5.11-3.11,8.51-6.73
			c-0.11-9.64,0.73-19.27,1.74-29.77l-75.47-75.47C143.56,260.19,139.43,260.51,135.24,260.75z"/>
		<path class="st2" d="M172.15,393.21l-82.77-82.77c-1.94,4.75-6.68,16.57-8.35,22.69c-0.01,0.02,0,0.04-0.01,0.06
			c-0.07-0.07-0.14-0.14-0.21-0.21c-4.83,17.15-8.88,33.7-5.7,51.13c1.08,5.93,3.22,11.43,7.3,15.53
			c4.21,4.22,10.45,6.96,16.57,8.04c15.62,2.74,30.57-0.23,45.85-4.45l0,0c0,0,0.01,0,0.01,0c1.61-0.44,3.22-0.9,4.83-1.36
			c-0.08-0.08-0.17-0.17-0.25-0.25c4.98-1.78,13.3-4.83,21.31-8.07C171.16,393.54,171.62,393.44,172.15,393.21z"/>
		<path class="st3" d="M226.23,310.12c4.49-27.12,10.94-50.92,19.99-72.02c0.18-0.98,0.76-1.84,1.16-2.76
			c-1.07,0.46-2.1,0.86-3.1,1.21c-22.34,9.44-46.27,15.83-71.74,19.89L226.23,310.12z"/>
	</g>
	<path class="st4" d="M268.28,448.77c-13.73-14.39-20.16-30.98-23.54-48.88c-5.22-27.66-3.9-55.38,0.42-82.98
		c4.22-27.02,10.96-53.38,22.71-78.22c5.2-11,11.19-21.56,20.53-29.73c9.17-8.02,16.97-7.94,26.09,0.19
		c8.5,7.57,14.27,17.21,18.86,27.34c21.32,47.09,30.6,96.49,26.55,148.11c-1.48,18.88-6.51,36.88-16.77,53.2
		c-15.6,24.82-44.27,32.1-67.69,16.8C272.54,452.69,270.02,450.2,268.28,448.77z M316.41,248.99c-3.3-2.65-7.1-3.49-11.06-1.56
		c-3.93,1.91-5.88,5.29-5.58,9.72c0.1,1.47,0.5,2.98,1.07,4.35c11.82,28.38,17.87,58.04,19.97,88.62
		c0.52,7.56,4.96,11.84,11.14,11.24c5.98-0.58,9.35-5.3,8.86-12.72c-2.08-31.91-8.49-62.87-20.44-92.61
		C319.37,253.56,318.41,251.06,316.41,248.99z M338.48,398.53c3.89-3.77,4.06-10.03,0.4-13.96c-3.74-4.01-10.44-4.05-14.33-0.08
		c-3.75,3.82-3.77,10.23-0.04,13.99C328.27,402.27,334.61,402.29,338.48,398.53z"/>
	<path class="st4" d="M36.64,217c-24.88-24.84-20.02-60.18,8.29-77.41c19.66-11.96,41.25-16.64,63.71-17.46
		c48.65-1.78,95.31,7.17,139.39,28.16c10.65,5.07,20.95,11.08,27.9,21.17c5.55,8.06,4.96,14.65-1.48,22.14
		c-8.33,9.69-19.06,16.03-30.42,21.24c-34.89,16.02-71.83,23.77-109.98,25.98c-23.22,1.34-46.25,0.17-68.52-7.46
		C54.09,229.44,43.62,223.81,36.64,217z M124.35,158.88c2.66,2.83,6.21,2.92,9.69,3.18c25.98,1.91,51.38,6.71,76.03,15.27
		c4.7,1.63,9.28,3.69,14.07,4.91c4.95,1.26,9.5-1.58,11.13-6.16c1.62-4.56-0.18-9.5-4.48-12.01c-1.43-0.83-2.96-1.5-4.5-2.11
		c-22.97-9.15-46.83-14.86-71.31-18.01c-7.58-0.98-15.22-1.59-22.86-2.07c-4.51-0.28-8.17,1.65-9.96,6.01
		C120.5,151.93,121.25,155.69,124.35,158.88z M84.28,158.25c3.83,3.74,10.14,3.68,13.97-0.14c3.96-3.94,3.89-10.58-0.16-14.31
		c-3.94-3.63-10.26-3.42-13.97,0.46C80.42,148.13,80.5,154.56,84.28,158.25z"/>
	<g>
		<path class="st5" d="M288.53,123.86c20.38-20.28,52.34-20.16,71.55-0.81c19.14,19.29,18.86,51.39-0.52,70.51
			c-5.18,5.11-11.13,8.87-17.89,11.47c-2.11,0.81-3.53,0.7-5.09-1.32c-8.7-11.27-19.09-19.91-34.14-20.78
			c-1.93-0.11-2.52-1-2.64-2.79c-0.96-14.81-9.42-25.16-20.51-33.79c-2.12-1.65-2.49-2.95-1.59-5.37
			C280.3,133.99,284.21,127.93,288.53,123.86z"/>
	</g>
	<path class="st0" d="M316.41,248.99c2.01,2.06,2.96,4.57,3.95,7.03c11.95,29.73,18.36,60.7,20.44,92.61
		c0.48,7.42-2.89,12.14-8.86,12.72c-6.17,0.6-10.62-3.67-11.14-11.24c-2.1-30.57-8.15-60.24-19.97-88.62
		c-0.57-1.37-0.97-2.88-1.07-4.35c-0.3-4.42,1.65-7.81,5.58-9.72C309.31,245.51,313.11,246.34,316.41,248.99z"/>
	<path class="st0" d="M338.48,398.53c-3.88,3.76-10.21,3.74-13.97-0.05c-3.73-3.76-3.72-10.17,0.04-13.99
		c3.89-3.97,10.59-3.93,14.33,0.08C342.54,388.5,342.37,394.77,338.48,398.53z"/>
	<path class="st0" d="M124.35,158.88c-3.1-3.19-3.85-6.95-2.19-11c1.79-4.36,5.45-6.29,9.96-6.01c7.63,0.48,15.27,1.1,22.86,2.07
		c24.48,3.15,48.34,8.86,71.31,18.01c1.54,0.61,3.07,1.28,4.5,2.11c4.3,2.51,6.1,7.44,4.48,12.01c-1.63,4.58-6.18,7.42-11.13,6.16
		c-4.8-1.22-9.38-3.28-14.07-4.91c-24.64-8.56-50.04-13.36-76.03-15.27C130.57,161.8,127.01,161.71,124.35,158.88z"/>
	<path class="st0" d="M84.28,158.25c-3.79-3.69-3.86-10.12-0.16-13.99c3.71-3.88,10.04-4.09,13.97-0.46
		c4.05,3.73,4.12,10.36,0.16,14.31C94.42,161.92,88.12,161.99,84.28,158.25z"/>
</g>
</svg>
